<?xml version="1.0" encoding="UTF-8" standalone="no" ?>
<!DOCTYPE svg PUBLIC "-//W3C//DTD SVG 1.1//EN" "http://www.w3.org/Graphics/SVG/1.1/DTD/svg11.dtd">
<svg xmlns="http://www.w3.org/2000/svg" xmlns:xlink="http://www.w3.org/1999/xlink" version="1.1" width="1080" height="1080" viewBox="0 0 1080 1080" xml:space="preserve">
<desc>Created with Fabric.js 5.2.4</desc>
<defs>
</defs>
<g transform="matrix(1 0 0 1 540 540)" id="bcfb79da-472c-4d01-9618-e3efb0b22a95"  >
<rect style="stroke: none; stroke-width: 1; stroke-dasharray: none; stroke-linecap: butt; stroke-dashoffset: 0; stroke-linejoin: miter; stroke-miterlimit: 4; fill: rgb(255,255,255); fill-rule: nonzero; opacity: 1; visibility: hidden;" vector-effect="non-scaling-stroke"  x="-540" y="-540" rx="0" ry="0" width="1080" height="1080" />
</g>
<g transform="matrix(1 0 0 1 540 540)" id="a7a2c971-c519-4d67-b3e9-4e273c50067c"  >
</g>
<g transform="matrix(2.06 0 0 2.06 539.04 540.47)"  >
<g style="" vector-effect="non-scaling-stroke"   >
		<g transform="matrix(1 0 0 1 0.35 -50.42)"  >
<path style="stroke: none; stroke-width: 1; stroke-dasharray: none; stroke-linecap: butt; stroke-dashoffset: 0; stroke-linejoin: miter; stroke-miterlimit: 4; fill: rgb(27,217,106); fill-rule: evenodd; opacity: 1;" vector-effect="non-scaling-stroke"  transform=" translate(-256.34, -206.58)" d="M 503.16 323.56 C 514.5500000000001 281.47 515.32 235.91 503.20000000000005 190.76 C 466.57 54.23 326.04 -26.8 189.33 9.78 C 83.81 38.02 11.39 128.07 0.69 230.47 L 43.989999999999995 230.47 C 54.28999999999999 147.32999999999998 113.74 74.72999999999999 199.75 51.71000000000001 C 306.05 23.26000000000001 415.13 80.67000000000002 453.16999999999996 181.38 L 411.03 192.65 C 391.64 145.8 352.57 111.45 306.29999999999995 96.82000000000001 L 298.55999999999995 140.66000000000003 C 335.0899999999999 154.13000000000002 364.7199999999999 184.50000000000003 375.55999999999995 224.91000000000003 C 391.35999999999996 283.8 361.93999999999994 344.14000000000004 308.55999999999995 369.17 L 320.0899999999999 412.16 C 390.2499999999999 383.21000000000004 432.3999999999999 310.3 422.42999999999995 235.14000000000001 L 464.40999999999997 223.91000000000003 C 468.81603390534957 251.93636392247151 467.5029984734402 280.56461831353283 460.55 308.06999999999994 z" stroke-linecap="round" />
</g>
		<g transform="matrix(1 0 0 1 -11.97 44)"  >
<path style="stroke: none; stroke-width: 1; stroke-dasharray: none; stroke-linecap: butt; stroke-dashoffset: 0; stroke-linejoin: miter; stroke-miterlimit: 4; fill: rgb(27,217,106); fill-rule: nonzero; opacity: 1;" vector-effect="non-scaling-stroke"  transform=" translate(-244.03, -301)" d="M 321.99 504.22 C 185.27 540.8 44.75 459.77 8.11 323.24 C 3.9111684526479156 307.6035822591813 1.1958215129493572 291.6061375269009 -7.105427357601002e-14 275.46 L 43.27 275.46 C 44.36000000000001 287.37 46.470000000000006 299.34999999999997 49.68000000000001 311.28999999999996 C 53.040000000000006 323.79999999999995 57.45 335.74999999999994 62.790000000000006 347.06999999999994 L 101.38000000000001 323.91999999999996 C 98.13000000000001 316.41999999999996 95.39000000000001 308.59999999999997 93.21000000000001 300.46999999999997 C 69.17000000000002 210.86999999999998 122.41000000000001 118.76999999999998 212.13 94.75999999999996 C 229.13 90.20999999999997 246.23 88.43999999999997 262.93 89.14999999999996 L 255.19 133 C 244.73 133.05 234.11 134.42 223.53 137.25 C 157.31 154.98 118.01 222.95 135.75 289.09000000000003 C 136.85 293.16 138.13 297.13000000000005 139.59 300.99 L 188.94 271.38 L 174.07 231.95 L 220.67 184.07999999999998 L 279.57 171.39 L 296.62 192.38 L 269.47 219.88 L 245.79000000000002 227.32999999999998 L 228.87 244.71999999999997 L 237.16 267.78999999999996 C 237.16 267.78999999999996 253.95 285.62999999999994 253.98 285.64 L 277.7 279.33 L 294.58 260.78999999999996 L 331.44 249.11999999999998 L 342.42 273.82 L 304.39 320.45 L 240.66 340.63 L 212.07999999999998 308.81 L 162.26 338.7 C 187.79999999999998 367.78 226.2 383.93 266.01 380.56 L 277.53999999999996 423.55 C 218.12999999999997 431.41 160.09999999999997 406.82 124.04999999999995 361.64 L 85.63999999999996 384.68 C 136.24999999999994 451.17 223.83999999999995 484.11 309.60999999999996 461.16 C 371.34999999999997 444.64000000000004 419.4 402.56 445.41999999999996 349.38 L 488.05999999999995 364.88 C 457.16999999999996 431.15999999999997 398.2199999999999 483.82 321.98999999999995 504.22" stroke-linecap="round" />
</g>
</g>
</g>
<g transform="matrix(NaN NaN NaN NaN 0 0)"  >
<g style=""   >
</g>
</g>
</svg>