<?xml version="1.0" encoding="UTF-8" standalone="no"?>
<svg
   class="svg-icon"
   style="overflow:hidden;fill:currentColor"
   viewBox="0 0 888.22876 888.2298"
   version="1.1"
   id="svg1"
   sodipodi:docname="internet-61.svg"
   width="888.22876"
   height="888.2298"
   inkscape:version="1.4.2 (ebf0e940d0, 2025-05-08)"
   xmlns:inkscape="http://www.inkscape.org/namespaces/inkscape"
   xmlns:sodipodi="http://sodipodi.sourceforge.net/DTD/sodipodi-0.dtd"
   xmlns="http://www.w3.org/2000/svg"
   xmlns:svg="http://www.w3.org/2000/svg">
  <defs
     id="defs1" />
  <sodipodi:namedview
     id="namedview1"
     pagecolor="#ffffff"
     bordercolor="#000000"
     borderopacity="0.25"
     inkscape:showpageshadow="2"
     inkscape:pageopacity="0.0"
     inkscape:pagecheckerboard="0"
     inkscape:deskcolor="#d1d1d1"
     inkscape:zoom="0.86328125"
     inkscape:cx="445.97285"
     inkscape:cy="444.81448"
     inkscape:window-width="1920"
     inkscape:window-height="1135"
     inkscape:window-x="0"
     inkscape:window-y="0"
     inkscape:window-maximized="1"
     inkscape:current-layer="svg1" />
  <path
     d="m 888.22876,419.44297 h -0.68664 C 874.69451,185.98385 680.71659,0 444.11694,0 199.23158,0 0,199.2326 0,444.11796 c 0,244.88126 199.23056,444.11182 444.11694,444.11182 244.87922,0 444.1108,-199.23056 444.1108,-444.11182 0,-7.68606 -0.19648,-15.32708 -0.58431,-22.91797 z M 67.455318,603.63809 C 47.252188,558.00784 35.582398,508.30688 34.671658,456.45084 H 184.59523 c 0.41546,52.48333 5.79908,102.2375 15.43862,148.03966 H 74.018808 Z M 456.45085,234.39442 V 37.010944 l -3.16509,-1.36509 c 72.19425,9.8442 140.82843,89.218986 180.8663,198.748566 z m 189.78953,37.00889 c 13.33675,46.07641 21.69818,96.25218 23.50432,148.03966 H 456.45085 V 271.40331 Z M 419.44093,36.284394 V 234.39544 H 253.27443 C 289.26206,127.07314 350.27771,48.545644 419.44093,36.284394 Z m 0,235.118916 V 419.44297 H 219.82971 c 2.22774,-51.73836 10.05398,-101.92641 22.33877,-148.03966 z M 185.13042,419.44297 H 35.772738 c 3.98066,-52.02898 18.04396,-102.14335 40.19035,-148.03966 H 205.06852 c -11.11413,45.86459 -18.00508,95.70676 -19.9381,148.03966 z m 34.08121,37.00787 H 419.44196 V 604.4905 H 238.50709 C 226.6613,558.39875 219.75091,508.32633 219.21163,456.45084 Z m 200.2293,185.04753 V 849.58359 C 349.47135,831.06482 285.33666,750.48457 249.34902,641.49837 Z m 37.00992,211.92365 V 641.49837 H 640.66336 C 603.40069,762.39586 534.59358,848.81407 456.45085,853.42202 Z m 0,-248.93152 V 456.45084 h 213.4719 C 668.704,508.20967 661.97781,558.30869 650.81046,604.4905 Z M 703.63251,456.45084 h 149.92868 c -0.86265,52.17838 -11.97985,102.1761 -31.39708,148.03966 H 688.19286 c 9.64057,-45.80216 15.02521,-95.55633 15.43965,-148.03966 z m -0.53519,-37.00787 C 701.16429,367.11109 694.27335,317.2679 683.16024,271.40331 H 809.9837 c 23.26998,45.89631 38.17546,96.00966 42.39967,148.03966 z M 788.84731,234.39442 H 673.01826 C 650.73269,161.88704 617.3064,101.54983 576.12753,60.257384 663.23033,93.283574 738.69712,155.8833 788.84731,234.39442 Z M 318.11213,54.414304 C 274.17136,95.755874 238.57054,158.39142 215.20948,234.39544 H 96.109938 C 146.97849,150.97655 225.70246,85.518724 318.11213,54.414304 Z M 86.683248,641.49837 H 208.97755 c 21.61836,78.83244 56.54994,143.57498 100.56234,186.93042 C 215.83779,794.03239 135.83264,726.7848 86.683248,641.49837 Z M 572.84067,834.01911 c 46.76714,-43.28381 83.84255,-110.22645 106.4085,-192.52074 h 124.97741 c -49.52086,90.17579 -132.4895,160.18631 -231.38591,192.52074 z"
     id="path1"
     style="fill:#ffffff" />
</svg>
